<svg xmlns="http://www.w3.org/2000/svg" xmlns:xlink="http://www.w3.org/1999/xlink" aria-hidden="true" role="img" class="iconify iconify--logos" width="31.88" height="32" preserveAspectRatio="xMidYMid meet" viewBox="0 0 256 257"><defs><linearGradient id="IconifyId1813088fe1fbc01fb466" x1="-.828%" x2="57.636%" y1="7.652%" y2="78.411%"><stop offset="0%" stop-color="#41D1FF"></stop><stop offset="100%" stop-color="#BD34FE"></stop></linearGradient><linearGradient id="IconifyId1813088fe1fbc01fb467" x1="43.376%" x2="50.316%" y1="2.242%" y2="89.03%"><stop offset="0%" stop-color="#FFEA83"></stop><stop offset="8.333%" stop-color="#FFDD35"></stop><stop offset="100%" stop-color="#FFA800"></stop></linearGradient></defs><path fill="url(#IconifyId1813088fe1fbc01fb466)" d="M255.153 37.938L134.897 252.976c-2.483 4.44-8.862 4.466-11.382.048L.875 37.958c-2.746-4.814 1.371-10.646 6.827-9.67l120.385 21.517a6.537 6.537 0 0 0 2.322-.004l117.867-21.483c5.438-.991 9.666 4.796 6.877 9.62Z"></path><path fill="url(#IconifyId1813088fe1fbc01fb467)" d="M185.432.063L96.44 17.501a3.268 3.268 0 0 0-2.634 3.014l-5.474 92.456a3.268 3.268 0 0 0 3.997 3.378l24.777-5.274c4.947-1.053 9.877-1.492 14.787-1.311c1.917.09 3.773.297 5.565.62c6.979 1.225 13.486 3.651 19.411 7.207c5.938 3.568 11.088 8.037 15.309 13.32c4.213 5.272 7.599 11.358 10.098 18.193c2.496 6.837 3.715 14.342 3.715 22.405c0 9.473-1.599 18.302-4.751 26.361c-3.144 8.056-7.705 15.146-13.624 21.191c-5.919 6.042-13.084 10.975-21.413 14.744c-8.333 3.775-17.714 5.666-28.084 5.666c-8.471 0-16.392-1.333-23.688-3.994c-7.29-2.656-13.829-6.471-19.536-11.404c-5.712-4.938-10.497-10.95-14.336-17.989c-3.842-7.039-6.699-14.999-8.575-23.825l28.772-4.921c1.846 6.345 4.518 11.956 7.978 16.781c3.459 4.829 7.604 8.863 12.398 12.05c4.8 3.195 10.24 5.531 16.252 6.987c6.018 1.461 12.576 2.19 19.637 2.19c6.523 0 12.661-.927 18.36-2.773c5.705-1.852 10.856-4.461 15.393-7.8c4.533-3.343 8.384-7.4 11.5-12.142c3.121-4.746 4.675-10.08 4.675-15.967c0-5.622-1.226-10.628-3.662-14.961c-2.43-4.337-5.865-7.93-10.238-10.733c-4.369-2.804-9.576-4.771-15.554-5.876l-34.239-6.238c-11.155-2.033-20.072-5.514-26.673-10.404c-6.596-4.896-9.888-11.345-9.888-19.291c0-6.625 2.053-12.405 6.13-17.289c4.08-4.888 9.702-8.516 16.789-10.833c7.093-2.323 15.333-3.485 24.633-3.485c5.899 0 11.611.475 17.072 1.417c5.465.943 10.622 2.333 15.412 4.152c4.794 1.82 9.232 3.997 13.27 6.505c4.043 2.514 7.612 5.328 10.675 8.41l-19.563 20.08c-1.226-1.163-2.791-2.232-4.675-3.188c-1.879-.961-4.043-1.759-6.454-2.375c-2.416-.622-5.05-1.03-7.87-1.214c-2.825-.189-5.804-.141-8.9.145c-6.194.57-11.78 2.023-16.666 4.333c-4.882 2.304-8.99 5.42-12.26 9.304c-3.264 3.881-4.891 8.48-4.891 13.747c0 3.891 1.073 7.171 3.2 9.8c2.133 2.637 5.12 4.6 8.916 5.851c3.802 1.257 8.31 2.08 13.478 2.454l48.82 8.042c11.324 1.866 20.233 5.111 26.64 9.7c6.412 4.593 9.611 10.533 9.611 17.78c0 7.507-3.254 14.209-9.726 20.024c-6.467 5.819-15.139 10.188-25.94 13.055l-.394.12l-28.198 7.748l-1.505.414c-9.221 2.537-18.454 3.805-27.633 3.805c-15.316 0-29.33-2.865-41.916-8.571c-12.582-5.712-23.58-13.966-32.906-24.691c-9.325-10.729-16.665-23.3-21.968-37.64C.98 153.207-1.386 137.579.65 121.636c2.047-15.943 6.546-30.833 13.43-44.545C21.21 62.995 30.18 50.82 41.07 40.429C52.138 29.856 64.93 21.23 79.336 14.622L177.694.04a3.268 3.268 0 0 1 3.714 2.694l4.32 30.132a3.268 3.268 0 0 1-2.687 3.78l-59.11 10.772a3.268 3.268 0 0 0-2.534 3.792l3.562 23.473a3.268 3.268 0 0 0 3.78 2.687l59.11-10.772a3.268 3.268 0 0 1 3.78 2.687l4.32 30.133a3.268 3.268 0 0 1-2.687 3.779l-59.11 10.772a3.268 3.268 0 0 0-2.535 3.792l3.563 23.473a3.268 3.268 0 0 0 3.779 2.687l28.467-5.189Z"></path></svg>

